<svg xmlns="http://www.w3.org/2000/svg" viewBox="0 0 461 220.5"><defs><style>.cls-1{fill:#c5001f;}</style></defs><title>logo v1.0</title><g id="Layer_2" data-name="Layer 2"><g id="Layer_1-2" data-name="Layer 1"><polygon class="cls-1" points="287.37 187.91 279.92 187.91 279.92 220.5 299.01 220.5 299.01 213.33 287.37 213.33 287.37 187.91"/><rect class="cls-1" x="311.57" y="187.91" width="7.45" height="32.59"/><polygon class="cls-1" points="346.48 211.88 339.27 187.91 331.12 187.91 341.74 220.5 351.23 220.5 361.85 187.91 353.7 187.91 346.48 211.88"/><polygon class="cls-1" points="381.39 207.55 393.03 207.55 393.03 200.48 381.39 200.48 381.39 195.08 394.2 195.08 394.2 187.91 373.94 187.91 373.94 220.5 394.43 220.5 394.43 213.33 381.39 213.33 381.39 207.55"/><path class="cls-1" d="M196.71,138.83v19.68h55.13q15.14,0,24.62-5.82T286,134.25q0-11.76-6.85-16.33a33.11,33.11,0,0,0-15.37-5.4v-1.2a31,31,0,0,0,8.71-3.3,23.08,23.08,0,0,0,7.86-7.33,20.5,20.5,0,0,0,3.37-12q0-11.4-8.41-17.53t-23.42-6.13H196.71v19.7h6v54.05Zm39.63-54.05h6.48a6.83,6.83,0,0,1,5.23,1.86q1.74,1.88,1.74,5.83v4.32c0,2.64-.58,4.59-1.74,5.83a6.83,6.83,0,0,1-5.23,1.86h-6.48Zm0,33.39h7.32a6.83,6.83,0,0,1,5.23,1.86q1.74,1.86,1.74,5.82v5.29c0,2.64-.58,4.59-1.74,5.83a6.83,6.83,0,0,1-5.23,1.86h-7.32Z"/><polygon class="cls-1" points="358.97 84.78 364.73 84.78 364.73 113.24 333.14 65.08 289.79 65.08 289.79 84.78 295.79 84.78 295.79 138.83 289.79 138.83 289.79 158.53 329.18 158.53 329.18 138.83 323.41 138.83 323.41 104.36 358.61 158.53 392.35 158.53 392.35 84.79 398.36 84.79 398.36 65.09 358.96 65.09 358.97 84.78"/><polygon class="cls-1" points="191.91 84.78 191.91 65.08 138.94 65.08 126.93 102.55 114.44 65.08 59.43 65.08 59.43 84.78 65.44 84.78 65.44 138.83 59.43 138.83 59.43 158.53 98.83 158.53 98.83 138.83 93.06 138.83 93.06 97.39 114.08 158.53 131.85 158.53 152.27 96.79 152.27 138.83 146.5 138.83 146.5 158.53 191.91 158.53 191.91 138.83 185.9 138.83 185.9 84.78 191.91 84.78"/><polygon class="cls-1" points="0 0 0 220.46 275.07 220.46 275.08 220.23 275.08 187.46 33 187.46 33 33 428 33 428 187.46 399.83 187.46 399.83 220.23 399.82 220.46 399.82 220.46 461 220.46 461 0 0 0"/></g></g></svg>