<svg xmlns="http://www.w3.org/2000/svg" width="46" height="46" viewBox="0 0 46 46">
  <path id="icons8-whatsapp" d="M25,2A23,23,0,0,0,4.963,36.29L2.037,46.73A1,1,0,0,0,3,48a1.03,1.03,0,0,0,.24-.029l10.9-2.7A23,23,0,1,0,25,2ZM36.57,33.116c-.492,1.362-2.852,2.6-3.986,2.772a8.209,8.209,0,0,1-3.72-.231A34.6,34.6,0,0,1,25.5,34.428c-5.923-2.526-9.791-8.415-10.087-8.8S13,22.463,13,19.594a6.5,6.5,0,0,1,2.067-4.864A2.183,2.183,0,0,1,16.642,14c.394,0,.787.005,1.132.021.363.018.85-.137,1.329,1,.492,1.168,1.673,4.037,1.819,4.33a1.064,1.064,0,0,1,.05,1.022,3.93,3.93,0,0,1-.59.973c-.3.341-.62.76-.886,1.022-.3.291-.6.606-.259,1.19A17.571,17.571,0,0,0,22.522,27.6a16.188,16.188,0,0,0,4.748,2.894c.59.292.935.243,1.279-.146s1.476-1.7,1.869-2.286.787-.487,1.329-.292,3.445,1.6,4.035,1.9.984.438,1.132.681A4.807,4.807,0,0,1,36.57,33.116Z" transform="translate(-2 -2)" fill="#c5001f"/>
</svg>
